<?xml version="1.0" standalone="no"?>
<svg xmlns:xlink="http://www.w3.org/1999/xlink" id="wave" style="transform:rotate(0deg); transition: 0.3s" viewBox="0 0 1440 160" version="1.1" xmlns="http://www.w3.org/2000/svg"><defs><linearGradient id="sw-gradient-0" x1="0" x2="0" y1="1" y2="0"><stop stop-color="rgba(243, 106, 62, 1)" offset="0%"/><stop stop-color="rgba(255, 179.902, 13.895, 1)" offset="100%"/></linearGradient></defs><path style="transform:translate(0, 0px); opacity:1" fill="url(#sw-gradient-0)" d="M0,64L14.1,66.7C28.2,69,56,75,85,74.7C112.9,75,141,69,169,80C197.6,91,226,117,254,109.3C282.4,101,311,59,339,45.3C367.1,32,395,48,424,48C451.8,48,480,32,508,34.7C536.5,37,565,59,593,72C621.2,85,649,91,678,96C705.9,101,734,107,762,112C790.6,117,819,123,847,128C875.3,133,904,139,932,136C960,133,988,123,1016,104C1044.7,85,1073,59,1101,64C1129.4,69,1158,107,1186,122.7C1214.1,139,1242,133,1271,128C1298.8,123,1327,117,1355,112C1383.5,107,1412,101,1440,93.3C1468.2,85,1496,75,1525,82.7C1552.9,91,1581,117,1609,122.7C1637.6,128,1666,112,1694,88C1722.4,64,1751,32,1779,24C1807.1,16,1835,32,1864,50.7C1891.8,69,1920,91,1948,90.7C1976.5,91,2005,69,2019,58.7L2032.9,48L2032.9,160L2018.8,160C2004.7,160,1976,160,1948,160C1920,160,1892,160,1864,160C1835.3,160,1807,160,1779,160C1750.6,160,1722,160,1694,160C1665.9,160,1638,160,1609,160C1581.2,160,1553,160,1525,160C1496.5,160,1468,160,1440,160C1411.8,160,1384,160,1355,160C1327.1,160,1299,160,1271,160C1242.4,160,1214,160,1186,160C1157.6,160,1129,160,1101,160C1072.9,160,1045,160,1016,160C988.2,160,960,160,932,160C903.5,160,875,160,847,160C818.8,160,791,160,762,160C734.1,160,706,160,678,160C649.4,160,621,160,593,160C564.7,160,536,160,508,160C480,160,452,160,424,160C395.3,160,367,160,339,160C310.6,160,282,160,254,160C225.9,160,198,160,169,160C141.2,160,113,160,85,160C56.5,160,28,160,14,160L0,160Z"/><defs><linearGradient id="sw-gradient-1" x1="0" x2="0" y1="1" y2="0"><stop stop-color="rgba(243, 62, 225.422, 1)" offset="0%"/><stop stop-color="rgba(22.435, 11, 255, 1)" offset="100%"/></linearGradient></defs><path style="transform:translate(0, 50px); opacity:0.9" fill="url(#sw-gradient-1)" d="M0,96L14.1,82.7C28.2,69,56,43,85,29.3C112.9,16,141,16,169,26.7C197.6,37,226,59,254,61.3C282.4,64,311,48,339,50.7C367.1,53,395,75,424,90.7C451.8,107,480,117,508,122.7C536.5,128,565,128,593,128C621.2,128,649,128,678,112C705.9,96,734,64,762,45.3C790.6,27,819,21,847,16C875.3,11,904,5,932,5.3C960,5,988,11,1016,24C1044.7,37,1073,59,1101,56C1129.4,53,1158,27,1186,32C1214.1,37,1242,75,1271,90.7C1298.8,107,1327,101,1355,90.7C1383.5,80,1412,64,1440,56C1468.2,48,1496,48,1525,40C1552.9,32,1581,16,1609,21.3C1637.6,27,1666,53,1694,58.7C1722.4,64,1751,48,1779,50.7C1807.1,53,1835,75,1864,69.3C1891.8,64,1920,32,1948,26.7C1976.5,21,2005,43,2019,53.3L2032.9,64L2032.9,160L2018.8,160C2004.7,160,1976,160,1948,160C1920,160,1892,160,1864,160C1835.3,160,1807,160,1779,160C1750.6,160,1722,160,1694,160C1665.9,160,1638,160,1609,160C1581.2,160,1553,160,1525,160C1496.5,160,1468,160,1440,160C1411.8,160,1384,160,1355,160C1327.1,160,1299,160,1271,160C1242.4,160,1214,160,1186,160C1157.6,160,1129,160,1101,160C1072.9,160,1045,160,1016,160C988.2,160,960,160,932,160C903.5,160,875,160,847,160C818.8,160,791,160,762,160C734.1,160,706,160,678,160C649.4,160,621,160,593,160C564.7,160,536,160,508,160C480,160,452,160,424,160C395.3,160,367,160,339,160C310.6,160,282,160,254,160C225.9,160,198,160,169,160C141.2,160,113,160,85,160C56.5,160,28,160,14,160L0,160Z"/></svg>